<svg width="64" height="64" viewBox="0 0 64 64" fill="none" xmlns="http://www.w3.org/2000/svg">
<path d="M53.42 53.32H10.58C8.32647 53.3174 6.166 52.421 4.57252 50.8275C2.97903 49.234 2.08265 47.0735 2.08 44.82V19.18C2.08265 16.9265 2.97903 14.766 4.57252 13.1725C6.166 11.579 8.32647 10.6826 10.58 10.68H53.42C55.6735 10.6826 57.834 11.579 59.4275 13.1725C61.021 14.766 61.9174 16.9265 61.92 19.18V44.82C61.9174 47.0735 61.021 49.234 59.4275 50.8275C57.834 52.421 55.6735 53.3174 53.42 53.32ZM10.58 13.68C9.12131 13.68 7.72236 14.2595 6.69091 15.2909C5.65946 16.3224 5.08 17.7213 5.08 19.18V44.82C5.08 46.2787 5.65946 47.6776 6.69091 48.7091C7.72236 49.7405 9.12131 50.32 10.58 50.32H53.42C54.8787 50.32 56.2776 49.7405 57.3091 48.7091C58.3405 47.6776 58.92 46.2787 58.92 44.82V19.18C58.92 17.7213 58.3405 16.3224 57.3091 15.2909C56.2776 14.2595 54.8787 13.68 53.42 13.68H10.58Z" fill="#222222"/>
<path d="M32 38.08C30.1496 38.0829 28.3486 37.4826 26.87 36.37L3.52 18.71C3.35502 18.5942 3.21507 18.4464 3.1085 18.2753C3.00194 18.1042 2.93094 17.9134 2.89976 17.7143C2.86858 17.5151 2.87784 17.3118 2.92701 17.1163C2.97618 16.9208 3.06423 16.7373 3.18591 16.5766C3.3076 16.4159 3.46042 16.2814 3.63524 16.1811C3.81007 16.0808 4.00332 16.0168 4.20344 15.9928C4.40357 15.9689 4.60647 15.9855 4.80003 16.0417C4.99359 16.0979 5.17383 16.1926 5.33 16.32L28.68 34C29.6389 34.7158 30.8034 35.1025 32 35.1025C33.1966 35.1025 34.3611 34.7158 35.32 34L58.67 16.32C58.8262 16.1926 59.0064 16.0979 59.2 16.0417C59.3935 15.9855 59.5964 15.9689 59.7966 15.9928C59.9967 16.0168 60.1899 16.0808 60.3647 16.1811C60.5396 16.2814 60.6924 16.4159 60.8141 16.5766C60.9358 16.7373 61.0238 16.9208 61.073 17.1163C61.1221 17.3118 61.1314 17.5151 61.1002 17.7143C61.0691 17.9134 60.9981 18.1042 60.8915 18.2753C60.7849 18.4464 60.645 18.5942 60.48 18.71L37.13 36.37C35.6514 37.4826 33.8504 38.0829 32 38.08Z" fill="#222222"/>
<path d="M4.17 49.14C3.86577 49.1404 3.5686 49.0484 3.31791 48.876C3.06723 48.7036 2.87489 48.4591 2.7664 48.1749C2.65792 47.8907 2.63842 47.5802 2.71051 47.2846C2.78259 46.989 2.94284 46.7224 3.17 46.52L21.57 30.11C21.867 29.8448 22.2573 29.7084 22.6549 29.7309C23.0524 29.7534 23.4248 29.933 23.69 30.23C23.9552 30.527 24.0916 30.9173 24.0691 31.3149C24.0466 31.7124 23.867 32.0848 23.57 32.35L5.17 48.76C4.89675 49.0086 4.5394 49.1444 4.17 49.14ZM59.83 49.14C59.4606 49.1444 59.1032 49.0086 58.83 48.76L40.43 32.35C40.133 32.0848 39.9534 31.7124 39.9309 31.3149C39.9084 30.9173 40.0448 30.527 40.31 30.23C40.5752 29.933 40.9476 29.7534 41.3451 29.7309C41.7427 29.7084 42.133 29.8448 42.43 30.11L60.82 46.52C61.0472 46.7224 61.2074 46.989 61.2795 47.2846C61.3516 47.5802 61.3321 47.8907 61.2236 48.1749C61.1151 48.4591 60.9228 48.7036 60.6721 48.876C60.4214 49.0484 60.1242 49.1404 59.82 49.14H59.83Z" fill="#222222"/>
</svg>
