<svg xmlns="http://www.w3.org/2000/svg" xmlns:xlink="http://www.w3.org/1999/xlink" width="480" zoomAndPan="magnify" viewBox="0 0 360 215.999996" height="288" preserveAspectRatio="xMidYMid meet" version="1.0"><defs><g/></defs><g fill="#000000" fill-opacity="1"><g transform="translate(39.064454, 122.624992)"><g><path d="M 4.199219 0 L 27.597656 0 L 27.597656 -5.898438 L 10.800781 -5.898438 L 10.800781 -36.445312 L 4.199219 -36.445312 Z M 4.199219 0 "/></g></g></g><g fill="#000000" fill-opacity="1"><g transform="translate(67.110111, 122.624992)"><g><path d="M 14.898438 0.449219 C 23.097656 0.449219 27.996094 -5.097656 27.996094 -13.296875 C 27.996094 -21.847656 22.746094 -27.097656 14.898438 -27.097656 C 6.648438 -27.097656 1.699219 -21.496094 1.699219 -13.296875 C 1.699219 -4.75 7 0.449219 14.898438 0.449219 Z M 14.847656 -4.699219 C 10.648438 -4.699219 8 -7.699219 8 -13.296875 C 8 -19 10.75 -21.949219 14.898438 -21.949219 C 19.046875 -21.949219 21.699219 -18.949219 21.699219 -13.296875 C 21.699219 -7.597656 18.949219 -4.699219 14.847656 -4.699219 Z M 14.847656 -4.699219 "/></g></g></g><g fill="#000000" fill-opacity="1"><g transform="translate(96.805513, 122.624992)"><g><path d="M 14.199219 8.847656 C 21.996094 8.847656 27.246094 5.800781 27.246094 -2.800781 L 27.246094 -26.597656 L 21.199219 -26.597656 L 20.996094 -22.046875 L 20.648438 -22.046875 C 19.449219 -25.097656 16.347656 -27.097656 12.347656 -27.097656 C 5.949219 -27.097656 1.699219 -22.597656 1.699219 -14.347656 C 1.699219 -6.050781 5.847656 -1.550781 12.25 -1.550781 C 16.296875 -1.550781 19.449219 -3.601562 20.648438 -6.699219 L 20.996094 -6.699219 L 20.996094 -1.800781 C 20.996094 2.5 18.847656 4.347656 14.347656 4.347656 C 11.300781 4.347656 9.300781 3.050781 8.898438 1 L 2.898438 1 C 3.351562 5.800781 7.5 8.847656 14.199219 8.847656 Z M 14.5 -6.398438 C 10.648438 -6.398438 8.050781 -9.097656 8.050781 -14.347656 C 8.050781 -19.5 10.597656 -22.246094 14.546875 -22.246094 C 18.699219 -22.246094 20.847656 -19.097656 20.996094 -15.949219 L 20.996094 -12.75 C 20.898438 -9.550781 18.699219 -6.398438 14.5 -6.398438 Z M 14.5 -6.398438 "/></g></g></g><g fill="#000000" fill-opacity="1"><g transform="translate(127.150814, 122.624992)"><g><path d="M 12.398438 0.449219 C 16.699219 0.449219 19.898438 -1.699219 21.199219 -4.949219 L 21.546875 -4.949219 L 21.546875 0 L 27.796875 0 L 27.796875 -26.597656 L 21.796875 -26.597656 L 21.546875 -21.699219 L 21.199219 -21.699219 C 19.898438 -24.949219 16.699219 -27.097656 12.398438 -27.097656 C 6 -27.097656 1.699219 -22.347656 1.699219 -13.296875 C 1.699219 -4.300781 6 0.449219 12.398438 0.449219 Z M 14.75 -4.648438 C 10.75 -4.648438 8.050781 -7.5 8.050781 -13.296875 C 8.050781 -19.148438 10.75 -21.996094 14.75 -21.996094 C 19.199219 -21.996094 21.449219 -18.5 21.449219 -14.699219 L 21.449219 -11.949219 C 21.449219 -8.199219 19.199219 -4.648438 14.75 -4.648438 Z M 14.75 -4.648438 "/></g></g></g><g fill="#000000" fill-opacity="1"><g transform="translate(158.295987, 122.624992)"><g><path d="M 3.351562 0 L 9.597656 0 L 9.597656 -14.648438 C 9.597656 -18.648438 12.046875 -21.949219 16.25 -21.949219 C 20.148438 -21.949219 21.847656 -19.597656 21.847656 -14.597656 L 21.847656 0 L 28.097656 0 L 28.097656 -15.949219 C 28.097656 -23.996094 24.046875 -27.097656 18.648438 -27.097656 C 14.796875 -27.097656 11.398438 -25.199219 9.898438 -21.546875 L 9.597656 -21.546875 L 9.347656 -26.597656 L 3.351562 -26.597656 Z M 3.351562 0 "/></g></g></g><g fill="#000000" fill-opacity="1"><g transform="translate(189.491161, 122.624992)"><g/></g></g><g fill="#000000" fill-opacity="1"><g transform="translate(200.389472, 122.624992)"><g><path d="M 0.101562 0 L 7 0 L 9.699219 -8 L 24.898438 -8 L 27.648438 0 L 34.496094 0 L 21.949219 -36.445312 L 12.648438 -36.445312 Z M 11.300781 -13.097656 L 14.847656 -23.347656 L 17.199219 -30.398438 L 17.449219 -30.398438 L 19.746094 -23.347656 L 23.347656 -13.097656 Z M 11.300781 -13.097656 "/></g></g></g><g fill="#000000" fill-opacity="1"><g transform="translate(234.984112, 122.624992)"><g><path d="M 3.351562 0 L 9.597656 0 L 9.597656 -36.445312 L 3.351562 -36.445312 Z M 3.351562 0 "/></g></g></g><g fill="#000000" fill-opacity="1"><g transform="translate(247.982105, 122.624992)"><g><path d="M 3.351562 0 L 9.597656 0 L 9.597656 -36.445312 L 3.351562 -36.445312 Z M 3.351562 0 "/></g></g></g><g fill="#000000" fill-opacity="1"><g transform="translate(260.980097, 122.624992)"><g><path d="M 14.75 0.449219 C 21.246094 0.449219 26.097656 -3.050781 26.847656 -8.300781 L 20.898438 -8.300781 C 20.296875 -5.898438 17.949219 -4.347656 14.75 -4.347656 C 10.597656 -4.347656 7.847656 -7.097656 7.847656 -11.949219 L 26.949219 -11.949219 C 27.847656 -20.597656 23.546875 -27.097656 14.5 -27.097656 C 6.699219 -27.097656 1.699219 -21.648438 1.699219 -13.148438 C 1.699219 -4.949219 6.597656 0.449219 14.75 0.449219 Z M 14.5 -22.296875 C 18 -22.296875 20.648438 -20.347656 20.847656 -16.148438 L 7.898438 -16.148438 C 8.300781 -19.949219 10.75 -22.296875 14.5 -22.296875 Z M 14.5 -22.296875 "/></g></g></g><g fill="#000000" fill-opacity="1"><g transform="translate(289.725663, 122.624992)"><g><path d="M 3.351562 0 L 9.597656 0 L 9.597656 -14.648438 C 9.597656 -18.648438 12.046875 -21.949219 16.25 -21.949219 C 20.148438 -21.949219 21.847656 -19.597656 21.847656 -14.597656 L 21.847656 0 L 28.097656 0 L 28.097656 -15.949219 C 28.097656 -23.996094 24.046875 -27.097656 18.648438 -27.097656 C 14.796875 -27.097656 11.398438 -25.199219 9.898438 -21.546875 L 9.597656 -21.546875 L 9.347656 -26.597656 L 3.351562 -26.597656 Z M 3.351562 0 "/></g></g></g></svg>